# xmcd
#
# Track frame offsets:
# 150
# 10241
# 22116
# 30224
# 40804
# 61369
# 72826
# 84757
# 95843
# 106951
#
# Disc length: 1587 seconds
#
#
# Revision: 0
# Processed by: cddbd v1.5.1PL2 Copyright (c) Steve Scherf et al.
# Submitted via: FreeRIP 2.91 
#
DISCID=7306310a
DTITLE=Marshal - Forever 50's [CD1]
DYEAR=1900
DGENRE=Oldies
TTITLE0=Venus
TTITLE1=At the Hop
TTITLE2=Yakety Yak
TTITLE3=Turn Me Loose
TTITLE4=You Send Me
TTITLE5=Rockin' Robin
TTITLE6=Teen Angel
TTITLE7=This Ole House
TTITLE8=Come Softly to Me
TTITLE9=Standing on the Corner
EXTD=
EXTT0=
EXTT1=
EXTT2=
EXTT3=
EXTT4=
EXTT5=
EXTT6=
EXTT7=
EXTT8=
EXTT9=
PLAYORDER=
